<?xml version="1.0" encoding="iso-8859-1"?>
<!-- Generator: Adobe Illustrator 16.0.0, SVG Export Plug-In . SVG Version: 6.00 Build 0)  -->
<!DOCTYPE svg PUBLIC "-//W3C//DTD SVG 1.1//EN" "http://www.w3.org/Graphics/SVG/1.1/DTD/svg11.dtd">
<svg version="1.1" id="Capa_1" xmlns="http://www.w3.org/2000/svg" xmlns:xlink="http://www.w3.org/1999/xlink" x="0px" y="0px"
	 width="68.673px" height="68.674px" viewBox="0 0 68.673 68.674" style="enable-background:new 0 0 68.673 68.674;"
	 xml:space="preserve"><g fill="#1C4C7C">
<g>
	<path d="M67.682,30.151L53.394,19.149V7.684c0-1.404-1.141-2.544-2.544-2.544c-1.402,0-2.543,1.14-2.543,2.544v7.548L35.889,5.668
		c-0.915-0.703-2.188-0.703-3.104,0L0.992,30.151c-1.113,0.856-1.32,2.453-0.463,3.566c0.855,1.112,2.453,1.319,3.566,0.463
		l2.793-2.15v28.961c0,1.403,1.14,2.543,2.544,2.543h49.493c1.403,0,2.543-1.14,2.543-2.543V31.784l3.11,2.396
		c0.463,0.356,1.008,0.529,1.551,0.529c0.763,0,1.517-0.341,2.018-0.992C69.001,32.604,68.794,31.007,67.682,30.151z M29.103,30.664
		c1.717,0,3.107,1.393,3.107,3.108c0,1.718-1.391,3.109-3.107,3.109s-3.109-1.394-3.109-3.109
		C25.994,32.057,27.386,30.664,29.103,30.664z M21.189,36.565c1.717,0,3.108,1.393,3.108,3.107s-1.392,3.107-3.108,3.107
		c-1.718,0-3.108-1.394-3.108-3.107C18.081,37.954,19.472,36.565,21.189,36.565z M24.026,49.432c-0.001,0-0.002,0-0.004,0h-0.365
		l0.404,1.619c0.031,0.127,0.003,0.261-0.077,0.362c-0.081,0.104-0.204,0.164-0.335,0.164h-0.642l-0.22,2.734
		c-0.018,0.223-0.201,0.391-0.423,0.391h-2.353c-0.221,0-0.404-0.168-0.422-0.391l-0.219-2.734h-0.643
		c-0.131,0-0.254-0.062-0.334-0.164s-0.108-0.235-0.076-0.362l0.404-1.619h-0.365c-0.119,0-0.232-0.049-0.312-0.136
		c-0.08-0.09-0.12-0.204-0.111-0.321l0.424-5.272c0.019-0.222,0.203-0.392,0.424-0.392H23.6c0.221,0,0.404,0.17,0.422,0.392
		l0.418,5.188c0.01,0.038,0.016,0.077,0.016,0.118C24.455,49.243,24.277,49.427,24.026,49.432z M32.8,46.349
		c-0.08,0.085-0.191,0.135-0.309,0.135h-0.725l0.568,2.346c0.025,0.057,0.039,0.115,0.039,0.182c0,0.234-0.189,0.419-0.428,0.424
		c-0.002,0-0.003,0-0.005,0h-0.693l-0.298,4.874c-0.014,0.226-0.199,0.396-0.424,0.396h-2.786c-0.225,0-0.409-0.174-0.423-0.396
		l-0.299-4.874h-0.693c-0.13,0-0.252-0.061-0.333-0.162c-0.081-0.101-0.109-0.234-0.079-0.359l0.587-2.428h-0.725
		c-0.116,0-0.229-0.049-0.309-0.135c-0.08-0.085-0.122-0.197-0.114-0.314l0.502-8.225c0.014-0.223,0.199-0.396,0.424-0.396h5.709
		c0.225,0,0.409,0.177,0.423,0.396l0.503,8.225C32.921,46.149,32.879,46.264,32.8,46.349z M47.483,36.353
		c1.719,0,3.109,1.393,3.109,3.108s-1.394,3.106-3.109,3.106c-1.715,0-3.107-1.391-3.107-3.106S45.766,36.353,47.483,36.353z
		 M39.571,30.664c1.717,0,3.107,1.393,3.107,3.108c0,1.718-1.392,3.109-3.107,3.109c-1.717,0-3.107-1.394-3.107-3.109
		C36.46,32.057,37.853,30.664,39.571,30.664z M43.235,46.349c-0.078,0.085-0.189,0.135-0.309,0.135h-1.062l-0.479,7.822
		c-0.013,0.225-0.197,0.396-0.423,0.396h-2.786c-0.226,0-0.41-0.174-0.425-0.396l-0.479-7.822h-1.062
		c-0.116,0-0.229-0.05-0.311-0.135c-0.08-0.085-0.121-0.199-0.113-0.314l0.502-8.225c0.015-0.224,0.199-0.396,0.424-0.396h5.71
		c0.225,0,0.409,0.176,0.424,0.396l0.502,8.225C43.357,46.149,43.316,46.264,43.235,46.349z M50.628,49.296
		c-0.08,0.087-0.193,0.136-0.312,0.136h-0.842l-0.393,4.884c-0.021,0.221-0.201,0.391-0.424,0.391h-2.354
		c-0.223,0-0.404-0.17-0.422-0.391l-0.396-4.884h-0.843c-0.118,0-0.23-0.049-0.312-0.136c-0.08-0.09-0.121-0.204-0.111-0.321
		l0.424-5.272c0.019-0.222,0.203-0.392,0.424-0.392h4.818c0.221,0,0.404,0.17,0.422,0.392l0.424,5.272
		C50.748,49.092,50.707,49.206,50.628,49.296z"/>
</g>
<g>
</g>
<g>
</g>
<g>
</g>
<g>
</g>
<g>
</g>
<g>
</g>
<g>
</g>
<g>
</g>
<g>
</g>
<g>
</g>
<g>
</g>
<g>
</g>
<g>
</g>
<g>
</g>
<g>
</g></g>
</svg>
