<?xml version="1.0" encoding="utf-8"?>
<!-- Generator: Adobe Illustrator 24.2.1, SVG Export Plug-In . SVG Version: 6.00 Build 0)  -->
<svg version="1.1" id="Layer_1" xmlns="http://www.w3.org/2000/svg" xmlns:xlink="http://www.w3.org/1999/xlink" x="0px" y="0px"
	 viewBox="0 0 851.53 569.2" style="enable-background:new 0 0 851.53 569.2;" xml:space="preserve">
<style type="text/css">
	.st0{fill:#301C44;}
	.st1{fill:#423F92;}
	.st2{fill:#DBCAE4;}
</style>
<g>
	<path class="st0" d="M258.73,140.6l0.94,1.34l6.08,8.43l4.22,5.93l0.09,0.16l0.26,0.33l5.18,7.23l1.84,2.53l4.24,5.89l0.72,1.02
		l0.98,1.39l0.07,0.06l1.14,1.57l0.2,0.36l0.9,1.2l0.91,1.29l0.26,0.33l0.56,0.81l0.03,0.04l2.91,4.05l0.58,0.76l1.66,2.37
		l3.32,4.64l0.11,0.11l0.88,1.24l2.43,3.4l2.37,3.3l2.67,3.68l2.42,3.44l4.56,6.32l0.79,1.08l0.73,1.03l0.28,0.42l1.29-1.09
		l2.23-1.88l-4.88-6.71l-0.29-0.38l-0.73-0.98l-0.41-0.59l-0.58-0.77l-1.33-1.84l-2.51-3.42l-3.66-4.99l-4.88-6.71l-1.94-2.65
		l-2.68-3.63l-0.97-1.4l-0.45-0.55l-0.76-1.07l-0.8-1.09l-0.31-0.44l-7-9.54l-0.64-0.86l-6.04-8.24l-2.5-3.46l-1.4-1.9l0.01-0.03
		l-6.52-8.9l-1.93-2.65l-3.63-4.94l-0.59-0.86l-1.09-1.46l-0.99-1.36l-0.86-1.15l-0.76-1.03l-2.03-2.81l-0.21-0.32l-4.67-6.39
		l-0.11-0.11l-1.72-2.33l-0.13-0.17l-2.53-3.51l-0.47,0.3L241.1,116l10.31,14.35l0.62,0.91l3.32,4.64l0.13,0.16l1.52,2.11l0.25,0.37
		L258.73,140.6z M258.73,140.6"/>
	<path class="st1" d="M247.8,117.72l0.16,0.21l6.47,8.88l0.2,0.27l2.12,2.92l0.61,0.82l0.69,0.97l0.99,1.35l1.08,1.47l0.64,0.87
		l3.42,4.71l2.42,3.31l6.22,8.55l0.85,1.19l0.41,0.59l0.63,0.87l2.16,2.97l6.03,8.28l0.6,0.81l0.19,0.27l0.48,0.65l1.69,2.29
		l0.13,0.17l4.6,6.33l1.67,2.32l0.45,0.6l0.13,0.17l0.59,0.86l0.32,0.43l2.36,3.2l2.18,3.03l4.89,6.71l3.58,4.93l2.58,3.53
		l1.27,1.73l0.45,0.6l0.51,0.7l0.54,0.72l0.67,0.92l4.96,6.78c1.44-0.53,3.35-2.97,2.85-6.29c-0.03-0.22-0.09-0.45-0.16-0.7
		c-0.07-0.37-0.23-0.76-0.39-1.14c-0.03-0.05-0.05-0.14-0.07-0.2c-0.25-0.54-0.54-1.06-0.91-1.64c-0.06-0.1-0.13-0.16-0.15-0.25
		c-0.5-0.75-1.16-1.84-1.91-3.09c-1.01-1.7-2.21-3.73-3.46-5.89c-0.98-1.7-1.98-3.46-2.96-5.15c-0.14-0.26-0.29-0.52-0.45-0.78
		c-0.2-0.36-0.4-0.76-0.65-1.12c-0.15-0.26-0.27-0.46-0.42-0.72c-0.14-0.26-0.29-0.52-0.45-0.78c-0.03-0.05-0.09-0.15-0.11-0.2
		c-0.18-0.31-0.36-0.62-0.53-0.93c-0.03-0.05-0.09-0.15-0.12-0.2c-0.39-0.67-0.75-1.29-1.06-1.89c-0.18-0.31-0.31-0.61-0.51-0.87
		c-1.62-2.87-2.66-4.81-2.66-4.81c-0.23-0.28-0.42-0.54-0.6-0.86c-0.8-1.21-1.36-2.37-1.75-3.52c-0.69-2.11-0.76-3.99-0.54-5.59
		c0.01-0.05,0.02-0.08,0.03-0.13c0.46-3.01,1.92-4.93,1.92-4.93c0.06-0.07,0.14-0.18,0.16-0.26c0.37-0.6,0.79-1.18,1.16-1.73
		c1.79-2.48,3.73-4.71,6.09-6.72c0,0,0.01-0.04,0.05-0.03c0.11-0.1,0.22-0.2,0.34-0.29c0.01-0.05,0.05-0.04,0.06-0.07
		c4.35-3.62,9.97-6.81,18.11-10.5c0.24-0.11,0.49-0.22,0.74-0.33c0.59-0.27,1.23-0.53,1.86-0.8c0.05-0.03,0.14-0.05,0.2-0.08
		c0.4-0.2,0.83-0.34,1.23-0.54c15.79-6.86,27.92-16.52,38.15-30.36c1.16-1.56,2.37-3.37,2.15-5.3c-0.26-2.59-3.09-4.36-5.73-4.37
		c-2.64-0.02-5.06,1.25-7.35,2.54c-6.95,3.93-13.59,8.32-19.97,13.05c-3.18,2.37-13.75,13.33-16.13,15.77
		c-0.31,0.35-0.66,0.65-1,0.99c-0.76,0.71-1.51,1.43-2.3,2.12c-0.79,0.71-1.63,1.39-2.45,2.05c-0.01,0.04-0.05,0.03-0.06,0.07
		c-0.05,0.03-0.05,0.03-0.1,0.05c-0.5,0.39-0.99,0.77-1.48,1.13c-0.32,0.21-0.59,0.45-0.91,0.66c-0.12,0.11-0.27,0.2-0.38,0.29
		c-0.27,0.19-0.53,0.37-0.85,0.6c-0.06,0.07-0.15,0.09-0.21,0.16c-5.08,3.46-10.38,6.09-14.74,7.78c-8.66,3.38-14.2-0.25-19.27-4.48
		c-0.12-0.08-0.21-0.19-0.33-0.27c-0.28-0.25-0.56-0.5-0.84-0.71c-0.68-0.57-1.53-1.41-2.52-2.46c-1.39-1.46-3.03-3.25-4.79-5.25
		c-0.03-0.05-0.11-0.12-0.13-0.17c-1.89-2.16-3.88-4.48-5.75-6.72c-0.13-0.13-0.22-0.29-0.36-0.41c-4.97-5.9-9.23-11.23-9.23-11.23
		c-2.08-1.17-3.76-1.84-5.14-2.21c-0.24-0.06-0.53-0.13-0.74-0.15c-1.32-0.27-2.32-0.23-3.01-0.07c0,0-0.04-0.01-0.05,0.03
		c-1.25,0.28-1.67,0.9-1.67,0.9L247.8,117.72z M361.87,106.61c1.77-1.62,4.07-1.96,5.15-0.8c1.07,1.2,0.54,3.5-1.23,5.11
		c-1.78,1.61-4.08,1.95-5.16,0.79C359.52,110.51,360.09,108.23,361.87,106.61L361.87,106.61z M361.87,106.61"/>
	<path class="st1" d="M99.37,421.02c-14.83-30.56-10.86-67.1,7.54-105.01c-35.92,49.63-49.51,98.98-31.65,138.06
		c38.93,85.25,223.15,98.92,434.15,9.15c100.2-42.63,184.5-99.65,240.6-159.37c-53.5,46.91-123.08,90.4-202.68,124.78
		C332,521.66,141.64,508.13,99.37,421.02L99.37,421.02z M99.37,421.02"/>
	<path class="st1" d="M531.26,466.32c-223.71,99.25-424.14,84.03-466.05-10.23c-25.27-56.82,10.05-133.38,82.93-203.53
		C57.14,329,9.61,417.36,36.24,481.6c0.85,2.06,1.79,4.09,2.79,6.08c-3.33-5.09-6.17-10.43-8.48-16.03
		C-4.48,386.9,86.7,258.49,244.28,163.62c-3.11,1.74-6.23,3.5-9.33,5.27C70.14,263.63-27.15,396.49,7.05,483.73
		c35.05,89.4,199.83,115,398.87,47.58c28.05-8.88,56.83-19.7,86.05-32.53c77.86-34.21,145.35-77.4,197.07-124
		C643.88,408.75,590.49,440.04,531.26,466.32L531.26,466.32z M531.26,466.32"/>
	<path class="st2" d="M168.19,347.27c-10.04-20.69-7.35-45.44,5.1-71.11c-24.32,33.61-33.51,67.03-21.43,93.49
		c26.36,57.72,151.1,66.99,293.97,6.2c67.84-28.86,124.93-67.47,162.92-107.91c-36.23,31.77-83.35,61.21-137.24,84.5
		C325.71,415.41,196.81,406.25,168.19,347.27L168.19,347.27z M168.19,347.27"/>
	<path class="st2" d="M460.63,377.94c-151.48,67.2-287.19,56.89-315.58-6.93c-17.11-38.49,6.8-90.32,56.15-137.82
		c-61.61,51.76-93.79,111.59-75.76,155.09c0.58,1.4,1.21,2.77,1.88,4.12c-2.25-3.45-4.17-7.07-5.74-10.86
		c-23.71-57.38,38.03-144.33,144.73-208.57c-2.11,1.18-4.21,2.37-6.31,3.58C148.4,240.7,82.52,330.66,105.68,389.73
		c23.73,60.54,135.31,77.87,270.08,32.22c18.99-6.01,38.49-13.33,58.27-22.02c52.72-23.16,98.43-52.41,133.45-83.96
		C536.89,338.96,500.74,360.14,460.63,377.94L460.63,377.94z M460.63,377.94"/>
	<path class="st1" d="M379.25,449.68c81.73-20.37,160.58-54.15,233.07-95.66c63.61-36.43,157.81-104.77,164.03-185.71
		c6.41-83.38-91.21-79.64-147.34-70.56c33.63,3.88,61.94,23.6,71.5,58.19C727.38,253.02,516.25,400.15,379.25,449.68L379.25,449.68z
		 M379.25,449.68"/>
	<path class="st2" d="M451.85,319.1c41.52-10.36,81.58-27.5,118.41-48.6c32.31-18.5,80.17-53.22,83.33-94.34
		c3.26-42.36-46.33-40.46-74.85-35.84c17.09,1.97,31.47,11.99,36.33,29.56C628.71,219.18,521.45,293.93,451.85,319.1L451.85,319.1z
		 M451.85,319.1"/>
	<path class="st2" d="M574.04,12.7l10.55,30.59c0.23,0.67,0.76,1.2,1.42,1.43l30.45,10.6c2.06,0.72,2.06,3.65,0,4.37l-30.45,10.6
		c-0.67,0.23-1.19,0.76-1.42,1.43l-10.55,30.59c-0.72,2.07-3.64,2.07-4.36,0L559.13,71.7c-0.23-0.67-0.76-1.2-1.42-1.43l-30.45-10.6
		c-2.06-0.71-2.06-3.65,0-4.37l30.45-10.6c0.67-0.23,1.19-0.76,1.42-1.43l10.55-30.59C570.41,10.63,573.32,10.63,574.04,12.7
		L574.04,12.7z M604.28,0.14l-4.29,12.4c-0.09,0.28-0.3,0.49-0.58,0.58l-12.35,4.3c-0.84,0.29-0.84,1.48,0,1.77l12.35,4.3
		c0.28,0.09,0.49,0.3,0.58,0.58l4.29,12.4c0.28,0.84,1.47,0.84,1.76,0l4.29-12.4c0.09-0.28,0.3-0.49,0.58-0.58l12.35-4.3
		c0.84-0.29,0.84-1.48,0-1.77l-12.35-4.3c-0.28-0.09-0.49-0.3-0.58-0.58l-4.29-12.4C605.75-0.69,604.56-0.69,604.28,0.14
		L604.28,0.14z M644.36,34.98l-4.29,12.41c-0.1,0.27-0.3,0.48-0.58,0.58l-12.35,4.3c-0.84,0.29-0.84,1.47,0,1.77l12.35,4.3
		c0.28,0.09,0.48,0.3,0.58,0.57l4.29,12.41c0.28,0.84,1.47,0.84,1.76,0l4.29-12.41c0.09-0.27,0.3-0.48,0.57-0.57l12.36-4.3
		c0.84-0.29,0.84-1.48,0-1.77l-12.36-4.3c-0.27-0.1-0.48-0.31-0.57-0.58l-4.29-12.41C645.83,34.14,644.65,34.14,644.36,34.98
		L644.36,34.98z M640.69,14.34"/>
	<path class="st2" d="M523.95,132.85l-22.48,7.82c-0.49,0.17-0.87,0.55-1.04,1.05l-7.79,22.56c-0.53,1.53-2.69,1.53-3.21,0
		l-7.79-22.56c-0.17-0.5-0.56-0.88-1.05-1.05l-22.48-7.82c-1.52-0.53-1.52-2.7,0-3.22l22.48-7.82c0.49-0.17,0.88-0.56,1.05-1.05
		l7.79-22.56c0.52-1.54,2.68-1.54,3.21,0l7.79,22.56c0.17,0.49,0.55,0.88,1.04,1.05l22.48,7.82
		C525.47,130.15,525.47,132.31,523.95,132.85L523.95,132.85z M550.37,154.48l-9.12-3.17c-0.2-0.07-0.36-0.23-0.42-0.43l-3.17-9.15
		c-0.21-0.63-1.08-0.63-1.3,0l-3.17,9.15c-0.06,0.2-0.22,0.36-0.42,0.43l-9.12,3.17c-0.61,0.21-0.61,1.09,0,1.3l9.12,3.18
		c0.2,0.06,0.35,0.22,0.42,0.43l3.17,9.15c0.21,0.62,1.08,0.62,1.3,0l3.17-9.15c0.06-0.21,0.22-0.37,0.42-0.43l9.12-3.18
		C550.99,155.56,550.99,154.69,550.37,154.48L550.37,154.48z M522.74,182.21l-9.11-3.17c-0.2-0.07-0.36-0.22-0.43-0.43l-3.16-9.15
		c-0.21-0.61-1.09-0.61-1.31,0l-3.16,9.15c-0.07,0.21-0.23,0.36-0.43,0.43l-9.11,3.17c-0.62,0.22-0.62,1.1,0,1.31l9.11,3.17
		c0.2,0.07,0.35,0.23,0.43,0.43l3.16,9.15c0.21,0.62,1.09,0.62,1.31,0l3.16-9.15c0.07-0.2,0.22-0.36,0.43-0.43l9.11-3.17
		C523.36,183.31,523.36,182.44,522.74,182.21L522.74,182.21z M522.74,182.21"/>
	<path class="st2" d="M458.28,45.23l15.31-5.33c0.34-0.12,0.59-0.38,0.72-0.72l5.3-15.36c0.36-1.04,1.83-1.04,2.19,0l5.31,15.36
		c0.12,0.34,0.38,0.61,0.71,0.72l15.31,5.33c1.04,0.36,1.04,1.83,0,2.2l-15.31,5.32c-0.33,0.12-0.6,0.38-0.71,0.72l-5.31,15.37
		c-0.36,1.04-1.82,1.04-2.19,0l-5.3-15.37c-0.13-0.34-0.38-0.61-0.72-0.72l-15.31-5.32C457.25,47.06,457.25,45.59,458.28,45.23
		L458.28,45.23z M440.28,30.49l6.21,2.16c0.13,0.05,0.24,0.15,0.29,0.29l2.15,6.24c0.14,0.42,0.74,0.42,0.89,0l2.15-6.24
		c0.04-0.13,0.15-0.24,0.28-0.29l6.21-2.16c0.42-0.15,0.42-0.75,0-0.89l-6.21-2.16c-0.13-0.05-0.24-0.15-0.28-0.29l-2.15-6.23
		c-0.15-0.43-0.75-0.43-0.89,0l-2.15,6.23c-0.05,0.14-0.16,0.25-0.29,0.29l-6.21,2.16C439.85,29.75,439.85,30.34,440.28,30.49
		L440.28,30.49z M459.11,11.59l6.2,2.16c0.14,0.04,0.25,0.15,0.29,0.29l2.15,6.24c0.14,0.42,0.74,0.42,0.89,0l2.15-6.24
		c0.05-0.13,0.15-0.24,0.28-0.29l6.22-2.16c0.42-0.15,0.42-0.75,0-0.89l-6.22-2.16c-0.13-0.04-0.24-0.16-0.28-0.29l-2.15-6.23
		c-0.15-0.43-0.75-0.43-0.89,0l-2.15,6.23c-0.05,0.13-0.15,0.24-0.29,0.29l-6.2,2.16C458.68,10.84,458.68,11.44,459.11,11.59
		L459.11,11.59z M459.11,11.59"/>
</g>
</svg>
