<?xml version="1.0" encoding="UTF-8" standalone="no" ?>
<!DOCTYPE svg PUBLIC "-//W3C//DTD SVG 1.1//EN" "http://www.w3.org/Graphics/SVG/1.1/DTD/svg11.dtd">
<svg xmlns="http://www.w3.org/2000/svg" xmlns:xlink="http://www.w3.org/1999/xlink" version="1.1" width="1280" height="1024" viewBox="0 0 1280 1024" xml:space="preserve">
<desc>Created with Fabric.js 5.3.0</desc>
<defs>
</defs>
<g transform="matrix(1 0 0 1 640 512)" id="background-logo"  >
<rect style="stroke: none; stroke-width: 0; stroke-dasharray: none; stroke-linecap: butt; stroke-dashoffset: 0; stroke-linejoin: miter; stroke-miterlimit: 4; fill: rgb(255,255,255); fill-opacity: 0; fill-rule: nonzero; opacity: 1;"  paint-order="stroke"  x="-640" y="-512" rx="0" ry="0" width="1280" height="1024" />
</g>
<g transform="matrix(1.9211538461538462 0 0 1.9211538461538462 640 451.37939320184364)" id="logo-logo"  >
<g style=""  paint-order="stroke"   >
		<g transform="matrix(-0.12337273295197833 -0.03305762416250319 0.03305762416250309 -0.1233727329519782 -27.4647738295194 -60.76691954297641)"  >
<g style=""  paint-order="stroke"   >
		<g transform="matrix(1 0 0 1 32.00208152801716 -53.79790793221005)"  >
<polygon style="stroke: none; stroke-width: 1; stroke-dasharray: none; stroke-linecap: butt; stroke-dashoffset: 0; stroke-linejoin: miter; stroke-miterlimit: 4; fill: rgb(49,14,68); fill-rule: nonzero; opacity: 1;"  paint-order="stroke"  points="84.39999999999998,63.30000000000001 82.39999999999998,61.599999999999994 71.89999999999998,53 71.49999999999997,52.70000000000002 66.69999999999999,48.80000000000001 65.89999999999998,48.099999999999994 61.19999999999999,44.30000000000001 58.19999999999999,41.80000000000001 38.99999999999997,26.200000000000003 25.599999999999966,15.200000000000003 25.299999999999983,14.900000000000006 24.49999999999997,14.300000000000011 8.099999999999966,0.9000000000000057 2.299999999999983,-3.799999999999997 -11.100000000000023,-14.699999999999989 -13.400000000000034,-16.599999999999994 -16.50000000000003,-19.19999999999999 -16.700000000000017,-19.299999999999997 -20.30000000000001,-22.19999999999999 -21.00000000000003,-22.89999999999999 -23.80000000000001,-25.099999999999994 -26.700000000000017,-27.5 -27.50000000000003,-28.099999999999994 -29.30000000000001,-29.599999999999994 -29.400000000000034,-29.69999999999999 -38.60000000000002,-37.199999999999996 -40.400000000000034,-38.599999999999994 -45.70000000000002,-42.99999999999999 -56.20000000000002,-51.599999999999994 -56.50000000000003,-51.8 -59.300000000000026,-54.099999999999994 -67.00000000000003,-60.39999999999999 -74.50000000000003,-66.5 -82.90000000000002,-73.3 -90.60000000000002,-79.69999999999999 -105.00000000000003,-91.39999999999999 -107.50000000000003,-93.39999999999999 -109.80000000000003,-95.3 -110.70000000000002,-96.1 -113.00000000000003,-92.8 -117.00000000000003,-87.1 -101.60000000000002,-74.69999999999999 -100.70000000000002,-74 -98.40000000000002,-72.19999999999999 -97.10000000000002,-71.1 -95.30000000000003,-69.69999999999999 -91.10000000000002,-66.3 -83.20000000000002,-59.99999999999999 -71.70000000000002,-50.8 -56.300000000000026,-38.39999999999999 -50.20000000000002,-33.49999999999999 -41.80000000000001,-26.799999999999997 -38.70000000000002,-24.19999999999999 -37.30000000000001,-23.19999999999999 -34.900000000000034,-21.19999999999999 -32.400000000000034,-19.19999999999999 -31.400000000000034,-18.39999999999999 -9.400000000000034,-0.7999999999999972 -7.400000000000034,0.8000000000000114 11.599999999999966,16 19.49999999999997,22.400000000000006 23.899999999999977,25.900000000000006 23.899999999999977,26 44.39999999999998,42.400000000000006 50.49999999999997,47.30000000000001 61.89999999999998,56.400000000000006 63.79999999999998,58 67.19999999999999,60.70000000000002 70.29999999999998,63.20000000000002 72.99999999999997,65.30000000000001 75.39999999999998,67.20000000000002 81.79999999999995,72.4 82.5,73 97.19999999999999,84.80000000000001 97.5,85 102.89999999999998,89.30000000000001 103.29999999999995,89.6 111.29999999999995,96.1 112.19999999999999,95.1 117,89.9 " />
</g>
		<g transform="matrix(1 0 0 1 -4.599999999999966 4.5)"  >
<path style="stroke: none; stroke-width: 1; stroke-dasharray: none; stroke-linecap: butt; stroke-dashoffset: 0; stroke-linejoin: miter; stroke-miterlimit: 4; fill: rgb(49,14,68); fill-rule: nonzero; opacity: 1;"  paint-order="stroke"  transform=" translate(-144.4979184719829, -154.39790793221005)" d="M 281.6 186.2 L 281.1 185.79999999999998 L 260.70000000000005 169.39999999999998 L 260.1 168.89999999999998 L 253.40000000000003 163.49999999999997 L 251.50000000000003 161.99999999999997 L 249.30000000000004 160.19999999999996 L 246.20000000000005 157.69999999999996 L 242.80000000000004 154.99999999999997 L 240.80000000000004 153.39999999999998 L 230.00000000000003 144.7 L 222.40000000000003 138.6 L 202.80000000000004 122.8 L 200.10000000000005 120.6 L 198.80000000000004 119.5 L 196.80000000000004 117.9 L 190.00000000000003 112.4 L 171.00000000000003 97.10000000000001 L 169.10000000000002 95.60000000000001 L 168.50000000000003 95.10000000000001 L 167.00000000000003 93.9 L 161.70000000000002 89.7 L 161.3 89.4 L 146.8 77.7 L 141.5 73.4 L 140.1 72.30000000000001 L 139.7 72.00000000000001 L 137.79999999999998 70.40000000000002 L 136.79999999999998 69.60000000000002 L 129.39999999999998 63.700000000000024 L 122.49999999999997 58.10000000000002 L 107.09999999999997 45.700000000000024 L 95.79999999999997 36.60000000000002 L 87.69999999999997 30.100000000000023 L 83.69999999999997 26.900000000000023 L 82.29999999999997 25.800000000000022 L 80.69999999999997 24.50000000000002 L 79 23.2 L 76.9 21.5 L 61.3 9 C 58.3 11.1 55.4 17.9 58.599999999999994 25.2 C 58.8 25.7 59.099999999999994 26.2 59.39999999999999 26.7 C 59.79999999999999 27.5 60.39999999999999 28.3 60.99999999999999 29.099999999999998 C 61.099999999999994 29.2 61.199999999999996 29.4 61.29999999999999 29.499999999999996 C 62.19999999999999 30.599999999999998 63.19999999999999 31.599999999999998 64.39999999999999 32.699999999999996 C 64.6 32.9 64.8 32.99999999999999 64.89999999999999 33.199999999999996 C 66.49999999999999 34.599999999999994 68.69999999999999 36.699999999999996 71.19999999999999 39.099999999999994 C 74.6 42.39999999999999 78.6 46.3 82.79999999999998 50.49999999999999 C 86.09999999999998 53.79999999999999 89.49999999999999 57.199999999999996 92.79999999999998 60.49999999999999 C 93.29999999999998 60.99999999999999 93.79999999999998 61.49999999999999 94.29999999999998 61.99999999999999 C 94.99999999999999 62.699999999999996 95.69999999999999 63.49999999999999 96.49999999999999 64.19999999999999 C 96.99999999999999 64.69999999999999 97.39999999999999 65.1 97.89999999999999 65.6 C 98.39999999999999 66.1 98.89999999999999 66.6 99.39999999999999 67.1 C 99.49999999999999 67.19999999999999 99.69999999999999 67.39999999999999 99.8 67.5 C 100.39999999999999 68.1 101 68.7 101.6 69.3 C 101.69999999999999 69.39999999999999 101.89999999999999 69.6 102 69.7 C 103.3 71 104.5 72.2 105.6 73.4 C 106.19999999999999 74 106.69999999999999 74.60000000000001 107.3 75.10000000000001 C 112.8 80.7 116.39999999999999 84.50000000000001 116.39999999999999 84.50000000000001 C 117.1 85.00000000000001 117.69999999999999 85.50000000000001 118.3 86.10000000000001 C 120.89999999999999 88.4 122.89999999999999 90.7 124.5 93.10000000000001 C 127.4 97.50000000000001 128.7 101.80000000000001 129.2 105.60000000000001 C 129.2 105.7 129.2 105.80000000000001 129.2 105.9 C 130 113.10000000000001 127.79999999999998 118.4 127.79999999999998 118.4 C 127.69999999999999 118.60000000000001 127.59999999999998 118.9 127.59999999999998 119.10000000000001 C 127.09999999999998 120.7 126.49999999999999 122.30000000000001 125.99999999999999 123.80000000000001 C 123.39999999999999 130.60000000000002 120.29999999999998 136.9 116.09999999999998 143 C 116.09999999999998 143 116.09999999999998 143.1 115.99999999999999 143.1 C 115.79999999999998 143.4 115.59999999999998 143.7 115.39999999999999 144 C 115.39999999999999 144.1 115.3 144.1 115.3 144.2 C 107.5 155.2 96.5 166 80 179.5 C 79.5 179.9 79 180.3 78.5 180.7 C 77.3 181.7 76 182.7 74.7 183.7 C 74.60000000000001 183.79999999999998 74.4 183.89999999999998 74.3 184 C 73.5 184.7 72.6 185.3 71.8 186 C 39.599999999999994 211.5 17.599999999999994 241.2 2.5 279.3 C 0.8 283.6 -0.8999999999999999 288.5 0.8 292.8 C 3 298.6 10.600000000000001 300.90000000000003 16.7 299.3 C 22.799999999999997 297.7 27.6 293.3 32.1 288.90000000000003 C 45.7 275.6 58.3 261.40000000000003 70.1 246.60000000000002 C 76 239.20000000000002 93.6 207.50000000000003 97.6 200.40000000000003 C 98.1 199.40000000000003 98.69999999999999 198.50000000000003 99.3 197.50000000000003 C 100.6 195.40000000000003 101.89999999999999 193.30000000000004 103.3 191.20000000000002 C 104.7 189.1 106.2 187.00000000000003 107.7 185.00000000000003 C 107.7 184.90000000000003 107.8 184.90000000000003 107.8 184.80000000000004 C 107.89999999999999 184.70000000000005 107.89999999999999 184.70000000000005 108 184.60000000000005 C 108.9 183.40000000000006 109.8 182.20000000000005 110.7 181.10000000000005 C 111.3 180.40000000000006 111.8 179.70000000000005 112.4 179.00000000000006 C 112.60000000000001 178.70000000000005 112.9 178.40000000000006 113.10000000000001 178.10000000000005 C 113.60000000000001 177.50000000000006 114.10000000000001 176.90000000000006 114.7 176.20000000000005 C 114.8 176.00000000000006 115 175.90000000000003 115.10000000000001 175.70000000000005 C 124.7 164.60000000000005 135.3 155.30000000000004 144.3 148.70000000000005 C 162.20000000000002 135.60000000000005 177.20000000000002 140.50000000000006 191.5 147.10000000000005 C 191.8 147.20000000000005 192.1 147.40000000000006 192.4 147.50000000000006 C 193.20000000000002 147.90000000000006 194 148.30000000000007 194.8 148.60000000000005 C 196.70000000000002 149.50000000000006 199.20000000000002 150.90000000000006 202.10000000000002 152.70000000000005 C 206.20000000000002 155.20000000000005 211.10000000000002 158.30000000000004 216.40000000000003 161.80000000000004 C 216.50000000000003 161.90000000000003 216.70000000000005 162.00000000000003 216.80000000000004 162.10000000000005 C 222.50000000000003 165.90000000000006 228.50000000000003 170.00000000000006 234.20000000000005 174.00000000000006 C 234.60000000000005 174.20000000000005 234.90000000000003 174.50000000000006 235.30000000000004 174.70000000000005 C 250.40000000000003 185.20000000000005 263.50000000000006 194.80000000000004 263.50000000000006 194.80000000000004 C 269.00000000000006 196.20000000000005 273.30000000000007 196.70000000000005 276.70000000000005 196.70000000000005 C 277.30000000000007 196.70000000000005 278.00000000000006 196.70000000000005 278.50000000000006 196.60000000000005 C 281.70000000000005 196.40000000000006 284.00000000000006 195.70000000000005 285.50000000000006 194.90000000000006 C 285.50000000000006 194.90000000000006 285.6000000000001 194.90000000000006 285.6000000000001 194.80000000000007 C 288.30000000000007 193.40000000000006 288.9000000000001 191.70000000000007 288.9000000000001 191.70000000000007 L 281.6 186.2 z M 25.4 282.2 C 22.299999999999997 287 17.2 289.2 13.999999999999998 287.2 C 10.799999999999997 285.09999999999997 10.599999999999998 279.5 13.699999999999998 274.7 C 16.799999999999997 269.9 21.9 267.7 25.099999999999998 269.7 C 28.4 271.8 28.5 277.4 25.4 282.2 z" stroke-linecap="round" />
</g>
</g>
</g>
		<g transform="matrix(0.7946501576412853 0.24294893421690208 -0.24294893421690214 0.7946501576412855 -8.032602400192957 19.393419007065376)"  >
<g style=""  paint-order="stroke"   >
		<g transform="matrix(1 0 0 1 10.356020443231571 -10.57921015283705)"  >
<path style="stroke: none; stroke-width: 1; stroke-dasharray: none; stroke-linecap: butt; stroke-dashoffset: 0; stroke-linejoin: miter; stroke-miterlimit: 4; fill: rgb(49,14,68); fill-rule: nonzero; opacity: 1;"  paint-order="stroke"  transform=" translate(144.6439768881896, -1430.1655136919762)" d="M -245.7917 1472.38879 C -254.26111 1463.29834 -256.77227999999997 1450.1011899999999 -254.36668 1434.87695 C -261.66668 1456.07849 -261.16125 1474.7799 -250.72131 1486.52502 C -227.95113999999998 1512.1416 -161.84555 1497.15698 -97.39893999999998 1443.1455 C -66.79551999999998 1417.4974300000001 -43.30123999999998 1388.52465 -29.999999999999986 1361.6343900000002 C -43.76059999999998 1383.7723300000002 -63.531109999999984 1406.4324900000001 -87.78697999999999 1426.9883900000002 C -153.41133 1482.60229 -221.65224 1498.29785 -245.7917 1472.38879 z" stroke-linecap="round" />
</g>
		<g transform="matrix(1 0 0 1 -6.906385000000014 2.6236599999999726)"  >
<path style="stroke: none; stroke-width: 1; stroke-dasharray: none; stroke-linecap: butt; stroke-dashoffset: 0; stroke-linejoin: miter; stroke-miterlimit: 4; fill: rgb(49,14,68); fill-rule: nonzero; opacity: 1;"  paint-order="stroke"  transform=" translate(161.90638233142118, -1443.3683838448133)" d="M -89.39988 1441.88513 C -157.29444999999998 1500.57178 -229.25459 1516.75513 -254.03437 1488.30957 C -268.97451 1471.1591799999999 -264.7596 1440.6176799999998 -246.68358999999998 1408.27856 C -270.44448 1444.76025 -277.68246 1480.73693 -261.47433 1500.3322699999999 C -260.9533 1500.9621499999998 -260.40908 1501.57019 -259.84527 1502.15917 C -261.55624 1500.73815 -263.1238 1499.1744299999998 -264.5353 1497.46447 C -285.88216 1471.60339 -267.60317000000003 1416.94482 -222.44498000000002 1366.8817099999999 C -223.35250000000002 1367.82421 -224.25531 1368.7722099999999 -225.15256000000002 1369.72717 C -272.86666 1420.5191599999998 -292.81038 1477.3879399999998 -271.48830000000004 1504.20849 C -249.63784000000004 1531.69372 -189.08007000000003 1522.96472 -126.43975000000003 1478.04675 C -117.54513000000003 1471.93554 -108.59923000000003 1465.06872 -99.71945000000002 1457.44824 C -76.05385000000003 1437.13867 -56.98263000000002 1414.8023699999999 -43.81277000000002 1392.9665499999999 C -56.03252 1409.68311 -71.42278 1426.34607 -89.39988 1441.88513 z" stroke-linecap="round" />
</g>
</g>
</g>
		<g transform="matrix(0.5380724822796602 0.1645052666815135 -0.16450526668151388 0.5380724822796615 -12.825588929492824 -2.006808464557338)"  >
<g style=""  paint-order="stroke"   >
		<g transform="matrix(1 0 0 1 10.356020443231571 -10.57921015283705)"  >
<path style="stroke: none; stroke-width: 1; stroke-dasharray: none; stroke-linecap: butt; stroke-dashoffset: 0; stroke-linejoin: miter; stroke-miterlimit: 4; fill: rgb(159,56,214); fill-rule: nonzero; opacity: 1;"  paint-order="stroke"  transform=" translate(144.6439768881896, -1430.1655136919762)" d="M -245.7917 1472.38879 C -254.26111 1463.29834 -256.77227999999997 1450.1011899999999 -254.36668 1434.87695 C -261.66668 1456.07849 -261.16125 1474.7799 -250.72131 1486.52502 C -227.95113999999998 1512.1416 -161.84555 1497.15698 -97.39893999999998 1443.1455 C -66.79551999999998 1417.4974300000001 -43.30123999999998 1388.52465 -29.999999999999986 1361.6343900000002 C -43.76059999999998 1383.7723300000002 -63.531109999999984 1406.4324900000001 -87.78697999999999 1426.9883900000002 C -153.41133 1482.60229 -221.65224 1498.29785 -245.7917 1472.38879 z" stroke-linecap="round" />
</g>
		<g transform="matrix(1 0 0 1 -6.906385000000014 2.6236599999999726)"  >
<path style="stroke: none; stroke-width: 1; stroke-dasharray: none; stroke-linecap: butt; stroke-dashoffset: 0; stroke-linejoin: miter; stroke-miterlimit: 4; fill: rgb(159,56,214); fill-rule: nonzero; opacity: 1;"  paint-order="stroke"  transform=" translate(161.90638233142118, -1443.3683838448133)" d="M -89.39988 1441.88513 C -157.29444999999998 1500.57178 -229.25459 1516.75513 -254.03437 1488.30957 C -268.97451 1471.1591799999999 -264.7596 1440.6176799999998 -246.68358999999998 1408.27856 C -270.44448 1444.76025 -277.68246 1480.73693 -261.47433 1500.3322699999999 C -260.9533 1500.9621499999998 -260.40908 1501.57019 -259.84527 1502.15917 C -261.55624 1500.73815 -263.1238 1499.1744299999998 -264.5353 1497.46447 C -285.88216 1471.60339 -267.60317000000003 1416.94482 -222.44498000000002 1366.8817099999999 C -223.35250000000002 1367.82421 -224.25531 1368.7722099999999 -225.15256000000002 1369.72717 C -272.86666 1420.5191599999998 -292.81038 1477.3879399999998 -271.48830000000004 1504.20849 C -249.63784000000004 1531.69372 -189.08007000000003 1522.96472 -126.43975000000003 1478.04675 C -117.54513000000003 1471.93554 -108.59923000000003 1465.06872 -99.71945000000002 1457.44824 C -76.05385000000003 1437.13867 -56.98263000000002 1414.8023699999999 -43.81277000000002 1392.9665499999999 C -56.03252 1409.68311 -71.42278 1426.34607 -89.39988 1441.88513 z" stroke-linecap="round" />
</g>
</g>
</g>
		<g transform="matrix(0.5164482966023672 -0.054280903268653 0.054280903268653015 0.5164482966023672 56.87902737482648 -24.58495313862761)"  >
<g style=""  paint-order="stroke"   >
		<g transform="matrix(1 0 0 1 0 0)"  >
<path style="stroke: none; stroke-width: 1; stroke-dasharray: none; stroke-linecap: butt; stroke-dashoffset: 0; stroke-linejoin: miter; stroke-miterlimit: 4; fill: rgb(49,14,68); fill-rule: nonzero; opacity: 1;"  paint-order="stroke"  transform=" translate(-125.00000430177133, -94.85066137642237)" d="M 0 189.70132 C 48.96651 182.86694 97.07834 168.06778 141.94574 148.37097 C 181.31461000000002 131.08801 240.50256000000002 97.12634 249.0842 50.429410000000004 C 257.92337000000003 2.330930000000002 200.68826 -1.487729999999999 167.36069 0.3513200000000012 C 186.76432 4.671880000000002 202.08499 17.87958 205.55866 38.58011 C 215.30901 96.68555 83.0238 169.30063 0 189.70132 z" stroke-linecap="round" />
</g>
</g>
</g>
		<g transform="matrix(0.26236681858844657 -0.027575863826827092 0.027575863826827102 0.26236681858844657 49.78766096517933 -36.804413555438316)"  >
<g style=""  paint-order="stroke"   >
		<g transform="matrix(1 0 0 1 0 0)"  >
<path style="stroke: none; stroke-width: 1; stroke-dasharray: none; stroke-linecap: butt; stroke-dashoffset: 0; stroke-linejoin: miter; stroke-miterlimit: 4; fill: rgb(159,56,214); fill-rule: nonzero; opacity: 1;"  paint-order="stroke"  transform=" translate(-125.00000430177133, -94.85066137642237)" d="M 0 189.70132 C 48.96651 182.86694 97.07834 168.06778 141.94574 148.37097 C 181.31461000000002 131.08801 240.50256000000002 97.12634 249.0842 50.429410000000004 C 257.92337000000003 2.330930000000002 200.68826 -1.487729999999999 167.36069 0.3513200000000012 C 186.76432 4.671880000000002 202.08499 17.87958 205.55866 38.58011 C 215.30901 96.68555 83.0238 169.30063 0 189.70132 z" stroke-linecap="round" />
</g>
</g>
</g>
		<g transform="matrix(0.37288506545757355 0 0 0.37288506545757355 62.64451278569817 -93.23365695591767)"  >
<g style=""  paint-order="stroke"   >
		<g transform="matrix(1 0 0 1 0 0)"  >
<path style="stroke: none; stroke-width: 1; stroke-dasharray: none; stroke-linecap: butt; stroke-dashoffset: 0; stroke-linejoin: miter; stroke-miterlimit: 4; fill: rgb(159,56,214); fill-rule: nonzero; opacity: 1;"  paint-order="stroke"  transform=" translate(-55.026883025, -52.00910638125002)" d="M 39.5220776 29.7967575 L 48.1538363 54.7023125 C 48.3426987 55.247244699999996 48.7709671 55.675513099999996 49.315899300000005 55.8643755 L 74.22144850000001 64.4961315 C 75.909242 65.08108630000001 75.909242 67.46803870000001 74.22144850000001 68.05299360000001 L 49.31589930000001 76.6847496 C 48.770967100000014 76.87361200000001 48.342698800000015 77.30188030000001 48.15383630000001 77.8468126 L 39.52207760000001 102.75236760000001 C 38.93712260000001 104.44016130000001 36.55017020000001 104.44016100000002 35.96521580000001 102.75236710000001 L 27.33346610000001 77.84681320000001 C 27.144603700000008 77.30188060000002 26.71633520000001 76.87361200000001 26.17140280000001 76.68474960000002 L 1.2658453 68.0529936 C -0.4219484 67.4680389 -0.4219484 65.0810861 1.2658453 64.4961314 L 26.171402699999998 55.864375499999994 C 26.7163352 55.675513099999996 27.144603699999998 55.247244499999994 27.333465999999998 54.70231189999999 L 35.9652157 29.79675799999999 C 36.550170200000004 28.10896409999999 38.9371225 28.10896369999999 39.5220775 29.79675749999999 Z M 63.3997719 0.5134954 L 59.8982694 10.6165349 C 59.8216567 10.837589 59.6479279 11.0113179 59.4268739 11.0879307 L 49.323838699999996 14.5894377 C 48.639178699999995 14.826727 48.639178699999995 15.7950041 49.323838699999996 16.0322934 L 59.4268739 19.5338004 C 59.6479279 19.6104132 59.8216566 19.7841421 59.8982694 20.0051962 L 63.3997719 30.1082357 C 63.637060899999994 30.7928962 64.6053374 30.792896300000002 64.8426266 30.1082359 L 68.3441327 20.005195999999998 C 68.42074550000001 19.784142 68.59447420000001 19.610413199999996 68.815528 19.533800399999997 L 78.9185599 16.032293399999997 C 79.6032198 15.795004099999996 79.6032198 14.826727099999996 78.9185599 14.589437799999997 L 68.815528 11.087930799999997 C 68.5944742 11.011317999999997 68.4207455 10.837589199999996 68.3441327 10.616535199999998 L 64.8426266 0.5134952999999971 C 64.6053374 -0.17116510000000285 63.6370609 -0.1711650000000029 63.399771900000005 0.5134954999999971 Z M 94.0214831 31.1352264 L 90.5199806 41.2382659 C 90.4433679 41.459320000000005 90.26963909999999 41.6330489 90.0485851 41.709661700000005 L 79.9455499 45.2111687 C 79.26088990000001 45.448458 79.26088990000001 46.416735100000004 79.9455499 46.654024400000004 L 90.0485851 50.1555314 C 90.26963909999999 50.2321442 90.44336779999999 50.4058731 90.5199806 50.626927200000004 L 94.0214831 60.729966700000006 C 94.2587721 61.414627200000005 95.2270486 61.41462730000001 95.4643378 60.72996690000001 L 98.9658439 50.62692700000001 C 99.0424567 50.40587300000001 99.2161854 50.23214420000001 99.4372392 50.15553140000001 L 109.5402711 46.65402440000001 C 110.224931 46.41673510000001 110.224931 45.44845810000001 109.5402711 45.21116880000001 L 99.4372392 41.709661800000006 C 99.21618539999999 41.63304900000001 99.04245669999999 41.45932020000001 98.9658439 41.238266200000005 L 95.4643378 31.135226300000006 C 95.22704859999999 30.450565900000008 94.2587721 30.450566000000006 94.0214831 31.135226500000005 Z" stroke-linecap="round" />
</g>
</g>
</g>
		<g transform="matrix(0 0.2751205186681274 -0.2751205186681274 0 35.4788886644576 -60.76691954297641)"  >
<g style=""  paint-order="stroke"   >
		<g transform="matrix(1 0 0 1 0 0)"  >
<path style="stroke: none; stroke-width: 1; stroke-dasharray: none; stroke-linecap: butt; stroke-dashoffset: 0; stroke-linejoin: miter; stroke-miterlimit: 4; fill: rgb(159,56,214); fill-rule: nonzero; opacity: 1;"  paint-order="stroke"  transform=" translate(-55.026883025, -52.00910638125002)" d="M 39.5220776 29.7967575 L 48.1538363 54.7023125 C 48.3426987 55.247244699999996 48.7709671 55.675513099999996 49.315899300000005 55.8643755 L 74.22144850000001 64.4961315 C 75.909242 65.08108630000001 75.909242 67.46803870000001 74.22144850000001 68.05299360000001 L 49.31589930000001 76.6847496 C 48.770967100000014 76.87361200000001 48.342698800000015 77.30188030000001 48.15383630000001 77.8468126 L 39.52207760000001 102.75236760000001 C 38.93712260000001 104.44016130000001 36.55017020000001 104.44016100000002 35.96521580000001 102.75236710000001 L 27.33346610000001 77.84681320000001 C 27.144603700000008 77.30188060000002 26.71633520000001 76.87361200000001 26.17140280000001 76.68474960000002 L 1.2658453 68.0529936 C -0.4219484 67.4680389 -0.4219484 65.0810861 1.2658453 64.4961314 L 26.171402699999998 55.864375499999994 C 26.7163352 55.675513099999996 27.144603699999998 55.247244499999994 27.333465999999998 54.70231189999999 L 35.9652157 29.79675799999999 C 36.550170200000004 28.10896409999999 38.9371225 28.10896369999999 39.5220775 29.79675749999999 Z M 63.3997719 0.5134954 L 59.8982694 10.6165349 C 59.8216567 10.837589 59.6479279 11.0113179 59.4268739 11.0879307 L 49.323838699999996 14.5894377 C 48.639178699999995 14.826727 48.639178699999995 15.7950041 49.323838699999996 16.0322934 L 59.4268739 19.5338004 C 59.6479279 19.6104132 59.8216566 19.7841421 59.8982694 20.0051962 L 63.3997719 30.1082357 C 63.637060899999994 30.7928962 64.6053374 30.792896300000002 64.8426266 30.1082359 L 68.3441327 20.005195999999998 C 68.42074550000001 19.784142 68.59447420000001 19.610413199999996 68.815528 19.533800399999997 L 78.9185599 16.032293399999997 C 79.6032198 15.795004099999996 79.6032198 14.826727099999996 78.9185599 14.589437799999997 L 68.815528 11.087930799999997 C 68.5944742 11.011317999999997 68.4207455 10.837589199999996 68.3441327 10.616535199999998 L 64.8426266 0.5134952999999971 C 64.6053374 -0.17116510000000285 63.6370609 -0.1711650000000029 63.399771900000005 0.5134954999999971 Z M 94.0214831 31.1352264 L 90.5199806 41.2382659 C 90.4433679 41.459320000000005 90.26963909999999 41.6330489 90.0485851 41.709661700000005 L 79.9455499 45.2111687 C 79.26088990000001 45.448458 79.26088990000001 46.416735100000004 79.9455499 46.654024400000004 L 90.0485851 50.1555314 C 90.26963909999999 50.2321442 90.44336779999999 50.4058731 90.5199806 50.626927200000004 L 94.0214831 60.729966700000006 C 94.2587721 61.414627200000005 95.2270486 61.41462730000001 95.4643378 60.72996690000001 L 98.9658439 50.62692700000001 C 99.0424567 50.40587300000001 99.2161854 50.23214420000001 99.4372392 50.15553140000001 L 109.5402711 46.65402440000001 C 110.224931 46.41673510000001 110.224931 45.44845810000001 109.5402711 45.21116880000001 L 99.4372392 41.709661800000006 C 99.21618539999999 41.63304900000001 99.04245669999999 41.45932020000001 98.9658439 41.238266200000005 L 95.4643378 31.135226300000006 C 95.22704859999999 30.450565900000008 94.2587721 30.450566000000006 94.0214831 31.135226500000005 Z" stroke-linecap="round" />
</g>
</g>
</g>
		<g transform="matrix(0 -0.18743606607913804 0.18743606607913804 0 25.7305063792939 -94.54549559763743)"  >
<g style=""  paint-order="stroke"   >
		<g transform="matrix(1 0 0 1 0 0)"  >
<path style="stroke: none; stroke-width: 1; stroke-dasharray: none; stroke-linecap: butt; stroke-dashoffset: 0; stroke-linejoin: miter; stroke-miterlimit: 4; fill: rgb(159,56,214); fill-rule: nonzero; opacity: 1;"  paint-order="stroke"  transform=" translate(-55.026883025, -52.00910638125002)" d="M 39.5220776 29.7967575 L 48.1538363 54.7023125 C 48.3426987 55.247244699999996 48.7709671 55.675513099999996 49.315899300000005 55.8643755 L 74.22144850000001 64.4961315 C 75.909242 65.08108630000001 75.909242 67.46803870000001 74.22144850000001 68.05299360000001 L 49.31589930000001 76.6847496 C 48.770967100000014 76.87361200000001 48.342698800000015 77.30188030000001 48.15383630000001 77.8468126 L 39.52207760000001 102.75236760000001 C 38.93712260000001 104.44016130000001 36.55017020000001 104.44016100000002 35.96521580000001 102.75236710000001 L 27.33346610000001 77.84681320000001 C 27.144603700000008 77.30188060000002 26.71633520000001 76.87361200000001 26.17140280000001 76.68474960000002 L 1.2658453 68.0529936 C -0.4219484 67.4680389 -0.4219484 65.0810861 1.2658453 64.4961314 L 26.171402699999998 55.864375499999994 C 26.7163352 55.675513099999996 27.144603699999998 55.247244499999994 27.333465999999998 54.70231189999999 L 35.9652157 29.79675799999999 C 36.550170200000004 28.10896409999999 38.9371225 28.10896369999999 39.5220775 29.79675749999999 Z M 63.3997719 0.5134954 L 59.8982694 10.6165349 C 59.8216567 10.837589 59.6479279 11.0113179 59.4268739 11.0879307 L 49.323838699999996 14.5894377 C 48.639178699999995 14.826727 48.639178699999995 15.7950041 49.323838699999996 16.0322934 L 59.4268739 19.5338004 C 59.6479279 19.6104132 59.8216566 19.7841421 59.8982694 20.0051962 L 63.3997719 30.1082357 C 63.637060899999994 30.7928962 64.6053374 30.792896300000002 64.8426266 30.1082359 L 68.3441327 20.005195999999998 C 68.42074550000001 19.784142 68.59447420000001 19.610413199999996 68.815528 19.533800399999997 L 78.9185599 16.032293399999997 C 79.6032198 15.795004099999996 79.6032198 14.826727099999996 78.9185599 14.589437799999997 L 68.815528 11.087930799999997 C 68.5944742 11.011317999999997 68.4207455 10.837589199999996 68.3441327 10.616535199999998 L 64.8426266 0.5134952999999971 C 64.6053374 -0.17116510000000285 63.6370609 -0.1711650000000029 63.399771900000005 0.5134954999999971 Z M 94.0214831 31.1352264 L 90.5199806 41.2382659 C 90.4433679 41.459320000000005 90.26963909999999 41.6330489 90.0485851 41.709661700000005 L 79.9455499 45.2111687 C 79.26088990000001 45.448458 79.26088990000001 46.416735100000004 79.9455499 46.654024400000004 L 90.0485851 50.1555314 C 90.26963909999999 50.2321442 90.44336779999999 50.4058731 90.5199806 50.626927200000004 L 94.0214831 60.729966700000006 C 94.2587721 61.414627200000005 95.2270486 61.41462730000001 95.4643378 60.72996690000001 L 98.9658439 50.62692700000001 C 99.0424567 50.40587300000001 99.2161854 50.23214420000001 99.4372392 50.15553140000001 L 109.5402711 46.65402440000001 C 110.224931 46.41673510000001 110.224931 45.44845810000001 109.5402711 45.21116880000001 L 99.4372392 41.709661800000006 C 99.21618539999999 41.63304900000001 99.04245669999999 41.45932020000001 98.9658439 41.238266200000005 L 95.4643378 31.135226300000006 C 95.22704859999999 30.450565900000008 94.2587721 30.450566000000006 94.0214831 31.135226500000005 Z" stroke-linecap="round" />
</g>
</g>
</g>
</g>
</g>
<g transform="matrix(1.9211538461538462 0 0 1.9211538461538462 639.9135480769231 667.0669692769176)" id="text-logo"  >
<g style=""  paint-order="stroke"   >
		<g transform="matrix(1 0 0 1 0 0)" id="text-logo-path-0"  >
<filter id="SVGID_1272754" y="-29.950248756218905%" height="159.90049751243782%" x="-21.582946390882228%" width="143.16589278176446%" >
	<feGaussianBlur in="SourceAlpha" stdDeviation="1.5"></feGaussianBlur>
	<feOffset dx="3" dy="0" result="oBlur" ></feOffset>
	<feFlood flood-color="rgb(4,191,191)" flood-opacity="1"/>
	<feComposite in2="oBlur" operator="in" />
	<feMerge>
		<feMergeNode></feMergeNode>
		<feMergeNode in="SourceGraphic"></feMergeNode>
	</feMerge>
</filter>
<path style="stroke: none; stroke-width: 0; stroke-dasharray: none; stroke-linecap: butt; stroke-dashoffset: 0; stroke-linejoin: miter; stroke-miterlimit: 4; fill: rgb(49,14,68); fill-rule: nonzero; opacity: 1;filter: url(#SVGID_1272754);"  paint-order="stroke"  transform=" translate(-191.77, 15.075)" d="M 9.45 0 L 9.45 -11.92 L 22.05 -11.92 L 22.05 0 L 29.25 0 L 29.25 -30.15 L 22.05 -30.15 L 22.05 -18.22 L 9.45 -18.22 L 9.45 -30.15 L 2.25 -30.15 L 2.25 0 Z M 42.3 0 L 63.9 0 L 63.9 -6.3 L 49.5 -6.3 L 49.5 -11.92 L 61.2 -11.92 L 61.2 -18.22 L 49.5 -18.22 L 49.5 -23.85 L 63.9 -23.85 L 63.9 -30.15 L 42.3 -30.15 Z M 76.95 0 L 97.65 0 L 97.65 -6.3 L 84.15 -6.3 L 84.15 -30.15 L 76.95 -30.15 Z M 117.9 0 L 117.9 -10.13 L 125.55 -10.13 C 130.95 -10.35 135.18 -14.67 135.18 -20.16 C 135.18 -25.61 130.95 -29.92 125.55 -30.15 L 110.7 -30.15 L 110.7 0 Z M 117.9 -16.43 L 117.9 -23.85 L 124.29 -23.85 C 126.49 -23.85 127.98 -22.32 127.98 -20.11 C 127.98 -17.91 126.49 -16.43 124.29 -16.43 Z M 148.23 0 L 169.83 0 L 169.83 -6.3 L 155.43 -6.3 L 155.43 -11.92 L 167.13 -11.92 L 167.13 -18.22 L 155.43 -18.22 L 155.43 -23.85 L 169.83 -23.85 L 169.83 -30.15 L 148.23 -30.15 Z M 208.03 0 L 201.24 -10.89 C 204.84 -12.38 207.36 -15.93 207.36 -20.16 C 207.36 -25.61 203.13 -29.92 197.73 -30.15 L 182.88 -30.15 L 182.88 0 L 190.08 0 L 190.08 -10.13 L 192.96 -10.13 L 199.31 0 Z M 190.08 -16.43 L 190.08 -23.85 L 196.47 -23.85 C 198.67 -23.85 200.16 -22.32 200.16 -20.11 C 200.16 -17.91 198.67 -16.43 196.47 -16.43 Z M 245.84 0 L 245.84 -10.13 L 253.49 -10.13 C 258.88 -10.35 263.12 -14.67 263.12 -20.16 C 263.12 -25.61 258.88 -29.92 253.49 -30.15 L 238.64 -30.15 L 238.64 0 Z M 245.84 -16.43 L 245.84 -23.85 L 252.23 -23.85 C 254.43 -23.85 255.92 -22.32 255.92 -20.11 C 255.92 -17.91 254.43 -16.43 252.23 -16.43 Z M 276.17 0 L 296.87 0 L 296.87 -6.3 L 283.37 -6.3 L 283.37 -30.15 L 276.17 -30.15 Z M 317.84 0 L 320.09 -5.85 L 331.06 -5.85 L 333.31 0 L 341.24 0 L 329.54 -30.15 L 321.62 -30.15 L 309.92 0 Z M 322.56 -12.15 L 325.58 -19.93 L 328.59 -12.15 Z M 361.49 0 L 361.49 -18.63 L 372.47 0 L 381.29 0 L 381.29 -30.15 L 374.09 -30.15 L 374.09 -11.43 L 363.06 -30.15 L 354.29 -30.15 L 354.29 0 Z" stroke-linecap="round" />
</g>
</g>
</g>
</svg>