<?xml version="1.0" encoding="utf-8"?>
<!-- Generator: Adobe Illustrator 27.2.0, SVG Export Plug-In . SVG Version: 6.00 Build 0)  -->
<svg version="1.1" id="Layer_1" xmlns="http://www.w3.org/2000/svg" xmlns:xlink="http://www.w3.org/1999/xlink" x="0px" y="0px"
	 viewBox="0 0 110 139.23" style="enable-background:new 0 0 110 139.23;" xml:space="preserve">
<style type="text/css">
	.st0{fill:#25AE88;}
	.st1{fill:#F1BF17;}
</style>
<g id="Guides_For_Artboard">
</g>
<g id="Layer_1_00000044881227833374784120000011427085429756832405_">
	<g>
		<g>
			<g>
				<path class="st0" d="M66.54,18.22c-16.65,0-25.72,9.67-25.72,24.98c0,24.23,18.71,54.99,25.08,59.1
					c18.85-17.72,25.4-46.98,25.4-58.99C91.31,23.96,78.02,18.22,66.54,18.22z M66.12,56.59c-8.16,0-14.77-6.62-14.77-14.77
					c0-8.16,6.62-14.77,14.77-14.77c8.16,0,14.77,6.62,14.77,14.77S74.28,56.59,66.12,56.59z"/>
			</g>
		</g>
		<g>
			<g>
				<path class="st1" d="M40.61,38.63c-16.65,0-25.72,9.67-25.72,24.98c0,24.23,18.71,54.99,25.08,59.1
					c18.85-17.72,25.4-46.98,25.4-58.99C65.37,44.36,52.09,38.63,40.61,38.63z M40.18,77c-8.16,0-14.77-6.62-14.77-14.78
					s6.62-14.77,14.77-14.77c8.16,0,14.77,6.62,14.77,14.77C54.96,70.38,48.34,77,40.18,77z"/>
			</g>
		</g>
	</g>
</g>
</svg>
